<svg width="637" height="588" viewBox="0 0 637 588" fill="none" xmlns="http://www.w3.org/2000/svg">
<circle cx="22.5" cy="240.5" r="22.5" fill="#4975E9"/>
<path d="M19 89C19 75.7451 29.7452 65 43 65H634C647.255 65 658 75.7452 658 89V542.405C658 555.66 647.255 566.405 634 566.405H43C29.7452 566.405 19 555.66 19 542.405V89Z" fill="white"/>
<rect x="19" y="65" width="639" height="501.405" rx="6.99635" stroke="#EBE9F1" stroke-width="1.16606"/>
<g clip-path="url(#clip0_1_813)">
<g clip-path="url(#clip1_1_813)">
<rect x="374.521" y="522.095" width="258.865" height="6.99635" rx="3.49818" fill="#28C76F" fill-opacity="0.12"/>
<rect x="374.521" y="522.095" width="229.714" height="6.99635" rx="3.49818" fill="#1EBD53"/>
</g>
<path d="M376.424 504.859V496.125H378.824C380.962 496.125 382.725 497.594 382.725 500.517C382.725 503.422 380.93 504.859 378.791 504.859H376.424ZM378.84 506.279C381.778 506.279 384.374 504.304 384.374 500.517C384.374 496.713 381.811 494.705 378.873 494.705H374.824V506.279H378.84ZM391.748 505.332C391.748 505.659 391.781 506.1 391.814 506.279H393.283C393.25 506.002 393.201 505.447 393.201 504.826V498.427H391.667V503.161C391.667 504.353 391.046 505.169 389.806 505.169C388.516 505.169 388.026 504.222 388.026 503.145V498.427H386.492V503.373C386.492 505.153 387.602 506.524 389.43 506.524C390.344 506.524 391.324 506.149 391.748 505.332ZM400.342 498.345C400.26 498.329 400.048 498.296 399.836 498.296C399.036 498.296 398.056 498.59 397.485 499.798V498.427H395.983V506.279H397.518V502.345C397.518 500.615 398.383 499.929 399.673 499.929C399.885 499.929 400.113 499.945 400.342 499.978V498.345ZM401.651 504.173C401.651 505.414 402.679 506.524 404.279 506.524C405.683 506.524 406.467 505.773 406.81 505.218C406.81 505.79 406.859 506.083 406.891 506.279H408.393C408.36 506.083 408.295 505.675 408.295 504.99V501.055C408.295 499.521 407.381 498.182 405.03 498.182C403.332 498.182 401.977 499.227 401.814 500.729L403.283 501.072C403.381 500.157 403.985 499.488 405.063 499.488C406.255 499.488 406.761 500.125 406.761 500.892C406.761 501.17 406.63 501.415 406.157 501.48L404.034 501.79C402.679 501.986 401.651 502.769 401.651 504.173ZM404.491 505.235C403.708 505.235 403.218 504.679 403.218 504.092C403.218 503.39 403.708 503.014 404.361 502.916L406.761 502.557V502.916C406.761 504.63 405.748 505.235 404.491 505.235ZM412.906 495.946H411.502V497.219C411.502 497.905 411.143 498.427 410.294 498.427H409.869V499.815H411.371V504.124C411.371 505.545 412.22 506.361 413.559 506.361C414.081 506.361 414.473 506.263 414.604 506.214V504.908C414.473 504.941 414.196 504.973 414 504.973C413.2 504.973 412.906 504.614 412.906 503.896V499.815H414.604V498.427H412.906V495.946ZM418.333 506.279V498.427H416.815V506.279H418.333ZM416.472 495.456C416.472 496.06 416.962 496.55 417.566 496.55C418.186 496.55 418.676 496.06 418.676 495.456C418.676 494.836 418.186 494.346 417.566 494.346C416.962 494.346 416.472 494.836 416.472 495.456ZM424.47 505.153C423.164 505.153 422.022 504.173 422.022 502.345C422.022 500.533 423.164 499.553 424.47 499.553C425.776 499.553 426.919 500.533 426.919 502.345C426.919 504.173 425.776 505.153 424.47 505.153ZM424.47 498.182C422.12 498.182 420.454 499.962 420.454 502.345C420.454 504.745 422.12 506.524 424.47 506.524C426.821 506.524 428.486 504.745 428.486 502.345C428.486 499.962 426.821 498.182 424.47 498.182ZM432.147 501.741C432.147 500.549 432.768 499.586 433.976 499.586C435.347 499.586 435.804 500.468 435.804 501.561V506.279H437.339V501.3C437.339 499.553 436.408 498.199 434.531 498.199C433.617 498.199 432.686 498.574 432.115 499.553V498.427H430.613V506.279H432.147V501.741ZM439.878 505.235C439.878 505.871 440.367 506.361 441.004 506.361C441.641 506.361 442.147 505.871 442.147 505.235C442.147 504.598 441.641 504.092 441.004 504.092C440.367 504.092 439.878 504.598 439.878 505.235ZM439.861 499.488C439.861 500.125 440.351 500.615 440.988 500.615C441.624 500.615 442.13 500.125 442.13 499.488C442.13 498.852 441.624 498.345 440.988 498.345C440.351 498.345 439.861 498.852 439.861 499.488ZM452.318 506.279V495.701H450.914C450.669 496.844 449.657 497.66 448.188 497.692V498.819H450.751V506.279H452.318ZM461.207 509.561L466.317 498.427H464.668L462.317 503.847L459.869 498.427H458.105L461.485 505.414L459.526 509.561H461.207ZM468.633 501.545C468.699 500.533 469.482 499.537 470.772 499.537C472.16 499.537 472.894 500.419 472.927 501.545H468.633ZM473.155 503.586C472.862 504.467 472.225 505.169 470.952 505.169C469.629 505.169 468.617 504.19 468.584 502.786H474.494C474.51 502.688 474.527 502.492 474.527 502.296C474.527 499.847 473.172 498.182 470.756 498.182C468.78 498.182 467.001 499.864 467.001 502.329C467.001 504.99 468.846 506.524 470.952 506.524C472.78 506.524 474.037 505.43 474.478 504.043L473.155 503.586ZM476.159 504.173C476.159 505.414 477.188 506.524 478.787 506.524C480.191 506.524 480.975 505.773 481.318 505.218C481.318 505.79 481.367 506.083 481.399 506.279H482.901C482.869 506.083 482.803 505.675 482.803 504.99V501.055C482.803 499.521 481.889 498.182 479.538 498.182C477.841 498.182 476.486 499.227 476.322 500.729L477.792 501.072C477.889 500.157 478.494 499.488 479.571 499.488C480.763 499.488 481.269 500.125 481.269 500.892C481.269 501.17 481.138 501.415 480.665 501.48L478.542 501.79C477.188 501.986 476.159 502.769 476.159 504.173ZM479 505.235C478.216 505.235 477.726 504.679 477.726 504.092C477.726 503.39 478.216 503.014 478.869 502.916L481.269 502.557V502.916C481.269 504.63 480.257 505.235 479 505.235ZM489.716 498.345C489.634 498.329 489.422 498.296 489.21 498.296C488.41 498.296 487.43 498.59 486.859 499.798V498.427H485.357V506.279H486.892V502.345C486.892 500.615 487.757 499.929 489.046 499.929C489.259 499.929 489.487 499.945 489.716 499.978V498.345Z" fill="#696E7A"/>
</g>
<g clip-path="url(#clip2_1_813)">
<g clip-path="url(#clip3_1_813)">
<rect x="51.5352" y="522.095" width="258.865" height="6.99635" rx="3.49818" fill="#EA5455" fill-opacity="0.12"/>
<rect x="51.5352" y="522.095" width="171.411" height="6.99635" rx="3.49818" fill="#EA5455"/>
</g>
<path d="M57.8296 506.279H59.6906L56.9317 501.431C58.6785 501.104 59.7396 499.815 59.7396 498.15C59.7396 496.24 58.3846 494.705 56.1971 494.705H51.8384V506.279H53.4545V501.545H55.185L57.8296 506.279ZM53.4545 500.109V496.142H55.9033C57.2092 496.142 58.0908 496.925 58.0908 498.15C58.0908 499.341 57.2092 500.109 55.9033 500.109H53.4545ZM62.6227 501.545C62.688 500.533 63.4716 499.537 64.7613 499.537C66.1489 499.537 66.8835 500.419 66.9161 501.545H62.6227ZM67.1447 503.586C66.8508 504.467 66.2142 505.169 64.9408 505.169C63.6185 505.169 62.6064 504.19 62.5737 502.786H68.4833C68.4996 502.688 68.516 502.492 68.516 502.296C68.516 499.847 67.161 498.182 64.7449 498.182C62.7696 498.182 60.9902 499.864 60.9902 502.329C60.9902 504.99 62.8349 506.524 64.9408 506.524C66.7692 506.524 68.0262 505.43 68.467 504.043L67.1447 503.586ZM72.695 495.946H71.2911V497.219C71.2911 497.905 70.9319 498.427 70.083 498.427H69.6586V499.815H71.1605V504.124C71.1605 505.545 72.0093 506.361 73.348 506.361C73.8704 506.361 74.2622 506.263 74.3928 506.214V504.908C74.2622 504.941 73.9846 504.973 73.7888 504.973C72.9888 504.973 72.695 504.614 72.695 503.896V499.815H74.3928V498.427H72.695V495.946ZM77.5204 501.545C77.5857 500.533 78.3693 499.537 79.6589 499.537C81.0465 499.537 81.7812 500.419 81.8138 501.545H77.5204ZM82.0423 503.586C81.7485 504.467 81.1118 505.169 79.8385 505.169C78.5162 505.169 77.504 504.19 77.4714 502.786H83.381C83.3973 502.688 83.4136 502.492 83.4136 502.296C83.4136 499.847 82.0587 498.182 79.6426 498.182C77.6673 498.182 75.8879 499.864 75.8879 502.329C75.8879 504.99 77.7326 506.524 79.8385 506.524C81.6669 506.524 82.9239 505.43 83.3647 504.043L82.0423 503.586ZM87.0703 501.741C87.0703 500.549 87.6906 499.586 88.8986 499.586C90.2699 499.586 90.727 500.468 90.727 501.561V506.279H92.2616V501.3C92.2616 499.553 91.331 498.199 89.4537 498.199C88.5395 498.199 87.609 498.574 87.0376 499.553V498.427H85.5357V506.279H87.0703V501.741ZM96.9227 495.946H95.5187V497.219C95.5187 497.905 95.1596 498.427 94.3107 498.427H93.8863V499.815H95.3881V504.124C95.3881 505.545 96.237 506.361 97.5757 506.361C98.0981 506.361 98.4899 506.263 98.6205 506.214V504.908C98.4899 504.941 98.2123 504.973 98.0164 504.973C97.2165 504.973 96.9227 504.614 96.9227 503.896V499.815H98.6205V498.427H96.9227V495.946ZM102.35 506.279V498.427H100.832V506.279H102.35ZM100.489 495.456C100.489 496.06 100.979 496.55 101.583 496.55C102.203 496.55 102.693 496.06 102.693 495.456C102.693 494.836 102.203 494.346 101.583 494.346C100.979 494.346 100.489 494.836 100.489 495.456ZM108.487 505.153C107.181 505.153 106.038 504.173 106.038 502.345C106.038 500.533 107.181 499.553 108.487 499.553C109.793 499.553 110.936 500.533 110.936 502.345C110.936 504.173 109.793 505.153 108.487 505.153ZM108.487 498.182C106.136 498.182 104.471 499.962 104.471 502.345C104.471 504.745 106.136 506.524 108.487 506.524C110.838 506.524 112.503 504.745 112.503 502.345C112.503 499.962 110.838 498.182 108.487 498.182ZM116.164 501.741C116.164 500.549 116.784 499.586 117.993 499.586C119.364 499.586 119.821 500.468 119.821 501.561V506.279H121.355V501.3C121.355 499.553 120.425 498.199 118.548 498.199C117.633 498.199 116.703 498.574 116.132 499.553V498.427H114.63V506.279H116.164V501.741ZM123.894 505.235C123.894 505.871 124.384 506.361 125.021 506.361C125.657 506.361 126.163 505.871 126.163 505.235C126.163 504.598 125.657 504.092 125.021 504.092C124.384 504.092 123.894 504.598 123.894 505.235ZM123.878 499.488C123.878 500.125 124.368 500.615 125.004 500.615C125.641 500.615 126.147 500.125 126.147 499.488C126.147 498.852 125.641 498.345 125.004 498.345C124.368 498.345 123.878 498.852 123.878 499.488ZM132.727 505.904C133.249 506.263 134.359 506.524 135.175 506.524C138.734 506.524 140.465 504.206 140.465 500.321C140.465 496.942 138.424 495.456 136.351 495.456C134.278 495.456 132.449 496.925 132.449 499.113C132.449 501.447 134.278 502.688 136.106 502.688C137.543 502.688 138.473 502.035 138.849 501.333C138.783 503.406 137.738 505.088 135.175 505.088C134.49 505.088 133.706 504.859 133.249 504.582L132.727 505.904ZM138.636 499.08C138.636 500.484 137.526 501.317 136.351 501.317C135.143 501.317 134.065 500.517 134.065 499.08C134.065 497.692 135.175 496.86 136.351 496.86C137.51 496.86 138.636 497.709 138.636 499.08ZM143.765 500.99C143.765 499.374 144.059 498.231 144.696 497.562C145.104 497.137 145.626 496.876 146.377 496.876C147.128 496.876 147.65 497.137 148.059 497.562C148.695 498.231 148.989 499.374 148.989 500.99C148.989 502.606 148.695 503.749 148.059 504.418C147.65 504.843 147.128 505.104 146.377 505.104C145.626 505.104 145.104 504.843 144.696 504.418C144.059 503.749 143.765 502.606 143.765 500.99ZM142.182 500.99C142.182 502.443 142.426 503.782 143.128 504.826C143.814 505.855 144.875 506.524 146.377 506.524C147.879 506.524 148.94 505.855 149.626 504.826C150.328 503.782 150.573 502.443 150.573 500.99C150.573 499.537 150.328 498.199 149.626 497.154C148.94 496.125 147.879 495.456 146.377 495.456C144.875 495.456 143.814 496.125 143.128 497.154C142.426 498.199 142.182 499.537 142.182 500.99ZM153.49 498.15C153.49 497.415 154.045 496.876 154.747 496.876C155.466 496.876 156.004 497.415 156.004 498.15C156.004 498.9 155.466 499.439 154.747 499.439C154.045 499.439 153.49 498.9 153.49 498.15ZM152.135 498.15C152.135 499.602 153.343 500.729 154.747 500.729C156.151 500.729 157.376 499.602 157.376 498.15C157.376 496.713 156.151 495.587 154.747 495.587C153.343 495.587 152.135 496.713 152.135 498.15ZM159.955 503.831C159.955 503.096 160.51 502.557 161.212 502.557C161.93 502.557 162.469 503.096 162.469 503.831C162.469 504.582 161.93 505.12 161.212 505.12C160.51 505.12 159.955 504.582 159.955 503.831ZM158.6 503.831C158.6 505.283 159.808 506.41 161.212 506.41C162.616 506.41 163.84 505.283 163.84 503.831C163.84 502.394 162.616 501.268 161.212 501.268C159.808 501.268 158.6 502.394 158.6 503.831ZM154.943 506.279L162.518 495.701H161.049L153.441 506.279H154.943Z" fill="#696E7A"/>
</g>
<g clip-path="url(#clip4_1_813)">
<g clip-path="url(#clip5_1_813)">
<rect x="374.521" y="457.962" width="258.865" height="6.99635" rx="3.49818" fill="#FF9F43" fill-opacity="0.12"/>
<rect x="374.521" y="457.962" width="160.916" height="6.99635" rx="3.49818" fill="#FFC947"/>
</g>
<path d="M378.824 442.391C381.174 442.391 382.986 440.922 382.986 438.195V430.572H381.387V438.146C381.387 439.909 380.456 440.905 378.824 440.905C377.207 440.905 376.244 439.909 376.244 438.146V430.572H374.661V438.195C374.661 440.922 376.473 442.391 378.824 442.391ZM385.026 440.105C385.156 441.003 386.071 442.391 388.225 442.391C390.168 442.391 391.099 441.069 391.099 439.958C391.099 438.799 390.348 437.934 388.927 437.624L387.654 437.346C387.05 437.216 386.756 436.873 386.756 436.4C386.756 435.861 387.279 435.355 388.062 435.355C389.303 435.355 389.629 436.253 389.695 436.661L391.05 436.155C390.886 435.453 390.217 434.049 388.062 434.049C386.528 434.049 385.271 435.192 385.271 436.53C385.271 437.64 386.005 438.473 387.23 438.734L388.568 439.028C389.221 439.175 389.58 439.55 389.58 440.04C389.58 440.595 389.107 441.085 388.242 441.085C387.132 441.085 386.511 440.432 386.413 439.616L385.026 440.105ZM394.221 437.412C394.286 436.4 395.07 435.404 396.36 435.404C397.747 435.404 398.482 436.285 398.514 437.412H394.221ZM398.743 439.452C398.449 440.334 397.812 441.036 396.539 441.036C395.217 441.036 394.205 440.056 394.172 438.652H400.082C400.098 438.555 400.114 438.359 400.114 438.163C400.114 435.714 398.759 434.049 396.343 434.049C394.368 434.049 392.588 435.73 392.588 438.195C392.588 440.856 394.433 442.391 396.539 442.391C398.367 442.391 399.624 441.297 400.065 439.909L398.743 439.452ZM406.595 434.212C406.513 434.196 406.301 434.163 406.089 434.163C405.289 434.163 404.31 434.457 403.738 435.665V434.294H402.236V442.146H403.771V438.212C403.771 436.481 404.636 435.796 405.926 435.796C406.138 435.796 406.367 435.812 406.595 435.845V434.212ZM407.659 440.105C407.79 441.003 408.704 442.391 410.859 442.391C412.802 442.391 413.732 441.069 413.732 439.958C413.732 438.799 412.981 437.934 411.561 437.624L410.288 437.346C409.684 437.216 409.39 436.873 409.39 436.4C409.39 435.861 409.912 435.355 410.696 435.355C411.936 435.355 412.263 436.253 412.328 436.661L413.683 436.155C413.52 435.453 412.851 434.049 410.696 434.049C409.161 434.049 407.904 435.192 407.904 436.53C407.904 437.64 408.639 438.473 409.863 438.734L411.202 439.028C411.855 439.175 412.214 439.55 412.214 440.04C412.214 440.595 411.74 441.085 410.875 441.085C409.765 441.085 409.145 440.432 409.047 439.616L407.659 440.105ZM415.873 441.101C415.873 441.738 416.363 442.228 416.999 442.228C417.636 442.228 418.142 441.738 418.142 441.101C418.142 440.465 417.636 439.958 416.999 439.958C416.363 439.958 415.873 440.465 415.873 441.101ZM415.857 435.355C415.857 435.992 416.346 436.481 416.983 436.481C417.62 436.481 418.126 435.992 418.126 435.355C418.126 434.718 417.62 434.212 416.983 434.212C416.346 434.212 415.857 434.718 415.857 435.355ZM428.313 442.146V431.568H426.909C426.664 432.71 425.652 433.526 424.183 433.559V434.686H426.746V442.146H428.313ZM432.173 436.857C432.173 435.241 432.467 434.098 433.103 433.429C433.511 433.004 434.034 432.743 434.785 432.743C435.536 432.743 436.058 433.004 436.466 433.429C437.103 434.098 437.397 435.241 437.397 436.857C437.397 438.473 437.103 439.616 436.466 440.285C436.058 440.709 435.536 440.971 434.785 440.971C434.034 440.971 433.511 440.709 433.103 440.285C432.467 439.616 432.173 438.473 432.173 436.857ZM430.589 436.857C430.589 438.31 430.834 439.648 431.536 440.693C432.222 441.722 433.283 442.391 434.785 442.391C436.287 442.391 437.348 441.722 438.033 440.693C438.735 439.648 438.98 438.31 438.98 436.857C438.98 435.404 438.735 434.065 438.033 433.02C437.348 431.992 436.287 431.323 434.785 431.323C433.283 431.323 432.222 431.992 431.536 433.02C430.834 434.065 430.589 435.404 430.589 436.857ZM442.284 436.857C442.284 435.241 442.578 434.098 443.214 433.429C443.623 433.004 444.145 432.743 444.896 432.743C445.647 432.743 446.169 433.004 446.577 433.429C447.214 434.098 447.508 435.241 447.508 436.857C447.508 438.473 447.214 439.616 446.577 440.285C446.169 440.709 445.647 440.971 444.896 440.971C444.145 440.971 443.623 440.709 443.214 440.285C442.578 439.616 442.284 438.473 442.284 436.857ZM440.7 436.857C440.7 438.31 440.945 439.648 441.647 440.693C442.333 441.722 443.394 442.391 444.896 442.391C446.398 442.391 447.459 441.722 448.145 440.693C448.846 439.648 449.091 438.31 449.091 436.857C449.091 435.404 448.846 434.065 448.145 433.02C447.459 431.992 446.398 431.323 444.896 431.323C443.394 431.323 442.333 431.992 441.647 433.02C440.945 434.065 440.7 435.404 440.7 436.857ZM458.711 442.146H460.735L455.854 435.73L460.67 430.572H458.564L453.144 436.53V430.572H451.544V442.146H453.144V438.652L454.793 436.889L458.711 442.146Z" fill="#696E7A"/>
</g>
<g clip-path="url(#clip6_1_813)">
<g clip-path="url(#clip7_1_813)">
<rect x="51.5352" y="457.962" width="258.865" height="6.99635" rx="3.49818" fill="#FAFBFF"/>
<rect x="51.5352" y="457.962" width="128.266" height="6.99635" rx="3.49818" fill="#4975E9"/>
</g>
<path d="M61.8618 442.146V436.481H56.3277V437.918H60.3436C60.2783 439.11 59.3478 440.938 56.7685 440.938C54.6952 440.938 52.7362 439.42 52.7362 436.351C52.7362 433.282 54.7605 431.796 56.8338 431.796C58.6295 431.796 59.9845 432.776 60.5069 434.441L61.9598 433.82C61.2904 431.731 59.3478 430.327 56.8338 430.327C53.9769 430.327 51.1038 432.433 51.1038 436.351C51.1038 440.269 53.8137 442.391 56.7195 442.391C58.6621 442.391 59.9192 441.428 60.4252 440.514L60.5722 442.146H61.8618ZM67.684 441.02C66.378 441.02 65.2353 440.04 65.2353 438.212C65.2353 436.4 66.378 435.42 67.684 435.42C68.99 435.42 70.1328 436.4 70.1328 438.212C70.1328 440.04 68.99 441.02 67.684 441.02ZM67.684 434.049C65.3333 434.049 63.6681 435.828 63.6681 438.212C63.6681 440.611 65.3333 442.391 67.684 442.391C70.0348 442.391 71.6999 440.611 71.6999 438.212C71.6999 435.828 70.0348 434.049 67.684 434.049ZM73.3368 440.04C73.3368 441.281 74.3652 442.391 75.9651 442.391C77.369 442.391 78.1526 441.64 78.4954 441.085C78.4954 441.656 78.5444 441.95 78.577 442.146H80.0789C80.0463 441.95 79.981 441.542 79.981 440.856V436.922C79.981 435.388 79.0668 434.049 76.716 434.049C75.0182 434.049 73.6633 435.094 73.5 436.596L74.9692 436.938C75.0672 436.024 75.6712 435.355 76.7486 435.355C77.9404 435.355 78.4464 435.992 78.4464 436.759C78.4464 437.036 78.3158 437.281 77.8424 437.346L75.7202 437.657C74.3652 437.853 73.3368 438.636 73.3368 440.04ZM76.1773 441.101C75.3937 441.101 74.9039 440.546 74.9039 439.958C74.9039 439.257 75.3937 438.881 76.0467 438.783L78.4464 438.424V438.783C78.4464 440.497 77.4343 441.101 76.1773 441.101ZM84.0693 442.146V430.327H82.5348V442.146H84.0693ZM86.7777 441.101C86.7777 441.738 87.2674 442.228 87.9041 442.228C88.5408 442.228 89.0468 441.738 89.0468 441.101C89.0468 440.465 88.5408 439.958 87.9041 439.958C87.2674 439.958 86.7777 440.465 86.7777 441.101ZM86.7614 435.355C86.7614 435.992 87.2511 436.481 87.8878 436.481C88.5244 436.481 89.0305 435.992 89.0305 435.355C89.0305 434.718 88.5244 434.212 87.8878 434.212C87.2511 434.212 86.7614 434.718 86.7614 435.355ZM100.328 444.056V442.358C102.401 442.113 103.479 440.709 103.479 439.257C103.479 437.787 102.385 436.579 100.573 436.22L100.328 436.171V432.825C101.324 433.102 101.813 433.951 101.911 434.571L103.381 434.033C103.119 432.971 102.336 431.633 100.328 431.372V429.641H99.0546V431.355C97.2262 431.584 95.9366 432.906 95.9366 434.457C95.9366 436.057 96.9813 437.085 98.6465 437.428L99.0546 437.51V440.922C97.7649 440.693 97.1446 439.681 97.0466 438.636L95.4958 439.126C95.6754 440.562 96.7854 442.13 99.0546 442.358V444.056H100.328ZM101.879 439.338C101.879 440.089 101.389 440.726 100.328 440.922V437.771C101.389 438.016 101.879 438.652 101.879 439.338ZM97.5527 434.392C97.5527 433.592 98.1078 432.955 99.0546 432.776V435.877C97.9445 435.665 97.5527 435.077 97.5527 434.392ZM109.09 442.146V431.568H107.686C107.441 432.71 106.429 433.526 104.96 433.559V434.686H107.523V442.146H109.09ZM112.949 436.857C112.949 435.241 113.243 434.098 113.88 433.429C114.288 433.004 114.81 432.743 115.561 432.743C116.312 432.743 116.835 433.004 117.243 433.429C117.88 434.098 118.173 435.241 118.173 436.857C118.173 438.473 117.88 439.616 117.243 440.285C116.835 440.709 116.312 440.971 115.561 440.971C114.81 440.971 114.288 440.709 113.88 440.285C113.243 439.616 112.949 438.473 112.949 436.857ZM111.366 436.857C111.366 438.31 111.611 439.648 112.313 440.693C112.998 441.722 114.06 442.391 115.561 442.391C117.063 442.391 118.124 441.722 118.81 440.693C119.512 439.648 119.757 438.31 119.757 436.857C119.757 435.404 119.512 434.065 118.81 433.02C118.124 431.992 117.063 431.323 115.561 431.323C114.06 431.323 112.998 431.992 112.313 433.02C111.611 434.065 111.366 435.404 111.366 436.857ZM123.061 436.857C123.061 435.241 123.354 434.098 123.991 433.429C124.399 433.004 124.922 432.743 125.673 432.743C126.424 432.743 126.946 433.004 127.354 433.429C127.991 434.098 128.285 435.241 128.285 436.857C128.285 438.473 127.991 439.616 127.354 440.285C126.946 440.709 126.424 440.971 125.673 440.971C124.922 440.971 124.399 440.709 123.991 440.285C123.354 439.616 123.061 438.473 123.061 436.857ZM121.477 436.857C121.477 438.31 121.722 439.648 122.424 440.693C123.11 441.722 124.171 442.391 125.673 442.391C127.174 442.391 128.236 441.722 128.921 440.693C129.623 439.648 129.868 438.31 129.868 436.857C129.868 435.404 129.623 434.065 128.921 433.02C128.236 431.992 127.174 431.323 125.673 431.323C124.171 431.323 123.11 431.992 122.424 433.02C121.722 434.065 121.477 435.404 121.477 436.857ZM133.172 436.857C133.172 435.241 133.466 434.098 134.102 433.429C134.51 433.004 135.033 432.743 135.784 432.743C136.535 432.743 137.057 433.004 137.465 433.429C138.102 434.098 138.396 435.241 138.396 436.857C138.396 438.473 138.102 439.616 137.465 440.285C137.057 440.709 136.535 440.971 135.784 440.971C135.033 440.971 134.51 440.709 134.102 440.285C133.466 439.616 133.172 438.473 133.172 436.857ZM131.588 436.857C131.588 438.31 131.833 439.648 132.535 440.693C133.221 441.722 134.282 442.391 135.784 442.391C137.286 442.391 138.347 441.722 139.032 440.693C139.734 439.648 139.979 438.31 139.979 436.857C139.979 435.404 139.734 434.065 139.032 433.02C138.347 431.992 137.286 431.323 135.784 431.323C134.282 431.323 133.221 431.992 132.535 433.02C131.833 434.065 131.588 435.404 131.588 436.857ZM143.283 436.857C143.283 435.241 143.577 434.098 144.214 433.429C144.622 433.004 145.144 432.743 145.895 432.743C146.646 432.743 147.168 433.004 147.576 433.429C148.213 434.098 148.507 435.241 148.507 436.857C148.507 438.473 148.213 439.616 147.576 440.285C147.168 440.709 146.646 440.971 145.895 440.971C145.144 440.971 144.622 440.709 144.214 440.285C143.577 439.616 143.283 438.473 143.283 436.857ZM141.699 436.857C141.699 438.31 141.944 439.648 142.646 440.693C143.332 441.722 144.393 442.391 145.895 442.391C147.397 442.391 148.458 441.722 149.144 440.693C149.846 439.648 150.09 438.31 150.09 436.857C150.09 435.404 149.846 434.065 149.144 433.02C148.458 431.992 147.397 431.323 145.895 431.323C144.393 431.323 143.332 431.992 142.646 433.02C141.944 434.065 141.699 435.404 141.699 436.857ZM153.394 436.857C153.394 435.241 153.688 434.098 154.325 433.429C154.733 433.004 155.255 432.743 156.006 432.743C156.757 432.743 157.279 433.004 157.688 433.429C158.324 434.098 158.618 435.241 158.618 436.857C158.618 438.473 158.324 439.616 157.688 440.285C157.279 440.709 156.757 440.971 156.006 440.971C155.255 440.971 154.733 440.709 154.325 440.285C153.688 439.616 153.394 438.473 153.394 436.857ZM151.811 436.857C151.811 438.31 152.056 439.648 152.758 440.693C153.443 441.722 154.504 442.391 156.006 442.391C157.508 442.391 158.569 441.722 159.255 440.693C159.957 439.648 160.202 438.31 160.202 436.857C160.202 435.404 159.957 434.065 159.255 433.02C158.569 431.992 157.508 431.323 156.006 431.323C154.504 431.323 153.443 431.992 152.758 433.02C152.056 434.065 151.811 435.404 151.811 436.857Z" fill="#696E7A"/>
</g>
<path d="M50.95 395.578H633.021" stroke="#EBE9F1" stroke-width="1.16606" stroke-linecap="square"/>
<path d="M362.898 304.008C362.898 298.875 367.06 294.714 372.193 294.714C377.326 294.714 381.487 298.875 381.487 304.008V367.009H362.898V304.008Z" fill="#F8F8F8"/>
<path d="M404.724 255.034C404.724 249.901 408.885 245.739 414.018 245.739C419.152 245.739 423.313 249.901 423.313 255.034V367.009H404.724V255.034Z" fill="#F8F8F8"/>
<path d="M446.549 158.251C446.549 153.118 450.711 148.956 455.844 148.956C460.977 148.956 465.138 153.118 465.138 158.251V367.009H446.549V158.251Z" fill="#4975E9"/>
<path d="M488.375 213.056C488.375 207.922 492.536 203.761 497.669 203.761C502.803 203.761 506.964 207.922 506.964 213.056V367.009H488.375V213.056Z" fill="#F8F8F8"/>
<path d="M530.2 255.034C530.2 249.901 534.362 245.739 539.495 245.739C544.628 245.739 548.79 249.901 548.79 255.034V367.009H530.2V255.034Z" fill="#F8F8F8"/>
<path d="M572.026 304.008C572.026 298.875 576.187 294.714 581.32 294.714C586.454 294.714 590.615 298.875 590.615 304.008V367.009H572.026V304.008Z" fill="#F8F8F8"/>
<path d="M613.851 351.817C613.851 346.683 618.012 342.522 623.145 342.522C628.279 342.522 632.44 346.683 632.44 351.817V367.009H613.851V351.817Z" fill="#F8F8F8"/>
<path d="M49.3175 329.024C49.3175 325.804 51.9278 323.194 55.1478 323.194H189.794C193.014 323.194 195.624 325.804 195.624 329.024V360.684C195.624 363.904 193.014 366.515 189.794 366.515H55.1478C51.9278 366.515 49.3175 363.904 49.3175 360.684V329.024Z" fill="#DCDCE3"/>
<path d="M80.4572 350.985C79.5865 350.985 78.754 350.854 77.9595 350.593C77.165 350.321 76.5393 349.973 76.0822 349.548L76.6862 348.275C77.1215 348.656 77.6765 348.971 78.3513 349.222C79.0261 349.472 79.728 349.597 80.4572 349.597C81.1211 349.597 81.6598 349.521 82.0734 349.369C82.4869 349.216 82.7917 349.01 82.9876 348.748C83.1835 348.476 83.2814 348.172 83.2814 347.834C83.2814 347.442 83.1508 347.127 82.8896 346.887C82.6393 346.648 82.3074 346.457 81.8938 346.316C81.4911 346.164 81.0449 346.033 80.5552 345.924C80.0654 345.815 79.5702 345.69 79.0696 345.549C78.5799 345.396 78.1282 345.206 77.7146 344.977C77.312 344.749 76.9855 344.444 76.7351 344.063C76.4848 343.671 76.3597 343.171 76.3597 342.561C76.3597 341.974 76.512 341.435 76.8168 340.945C77.1324 340.444 77.6112 340.047 78.2534 339.753C78.9063 339.449 79.7335 339.296 80.7347 339.296C81.3986 339.296 82.057 339.383 82.71 339.557C83.363 339.732 83.929 339.982 84.4078 340.308L83.8691 341.614C83.3793 341.288 82.8624 341.054 82.3182 340.912C81.7741 340.76 81.2462 340.684 80.7347 340.684C80.0926 340.684 79.5648 340.766 79.1512 340.929C78.7377 341.092 78.4329 341.31 78.237 341.582C78.052 341.854 77.9595 342.159 77.9595 342.496C77.9595 342.899 78.0847 343.22 78.335 343.459C78.5962 343.699 78.9281 343.889 79.3308 344.03C79.7444 344.172 80.196 344.303 80.6858 344.422C81.1755 344.531 81.6652 344.656 82.155 344.798C82.6556 344.939 83.1073 345.124 83.5099 345.353C83.9235 345.581 84.2554 345.886 84.5058 346.267C84.7561 346.648 84.8812 347.138 84.8812 347.736C84.8812 348.313 84.7234 348.852 84.4078 349.352C84.0922 349.842 83.6025 350.239 82.9386 350.544C82.2856 350.838 81.4585 350.985 80.4572 350.985ZM91.3567 350.952C90.4316 350.952 89.6154 350.762 88.908 350.381C88.2115 350 87.6673 349.478 87.2755 348.814C86.8946 348.15 86.7041 347.388 86.7041 346.528C86.7041 345.668 86.8892 344.907 87.2592 344.243C87.6401 343.579 88.1571 343.062 88.81 342.692C89.4739 342.311 90.2194 342.12 91.0465 342.12C91.8846 342.12 92.6246 342.305 93.2667 342.676C93.9088 343.046 94.4095 343.568 94.7686 344.243C95.1386 344.907 95.3237 345.685 95.3237 346.577C95.3237 346.642 95.3182 346.719 95.3073 346.806C95.3073 346.893 95.3019 346.974 95.291 347.051H87.9285V345.924H94.4748L93.8381 346.316C93.849 345.761 93.7347 345.266 93.4953 344.83C93.2558 344.395 92.9239 344.058 92.4995 343.818C92.0859 343.568 91.6016 343.443 91.0465 343.443C90.5024 343.443 90.0181 343.568 89.5936 343.818C89.1692 344.058 88.8373 344.401 88.5978 344.847C88.3584 345.282 88.2387 345.783 88.2387 346.349V346.61C88.2387 347.187 88.3693 347.704 88.6305 348.161C88.9026 348.607 89.278 348.955 89.7569 349.205C90.2357 349.456 90.7854 349.581 91.4057 349.581C91.9172 349.581 92.3797 349.494 92.7933 349.32C93.2177 349.146 93.5878 348.884 93.9034 348.536L94.7686 349.548C94.3768 350.005 93.8871 350.354 93.2994 350.593C92.7226 350.832 92.075 350.952 91.3567 350.952ZM101.819 350.952C100.894 350.952 100.078 350.762 99.3702 350.381C98.6737 350 98.1295 349.478 97.7377 348.814C97.3568 348.15 97.1663 347.388 97.1663 346.528C97.1663 345.668 97.3513 344.907 97.7214 344.243C98.1023 343.579 98.6192 343.062 99.2722 342.692C99.9361 342.311 100.682 342.12 101.509 342.12C102.347 342.12 103.087 342.305 103.729 342.676C104.371 343.046 104.872 343.568 105.231 344.243C105.601 344.907 105.786 345.685 105.786 346.577C105.786 346.642 105.78 346.719 105.77 346.806C105.77 346.893 105.764 346.974 105.753 347.051H98.3907V345.924H104.937L104.3 346.316C104.311 345.761 104.197 345.266 103.957 344.83C103.718 344.395 103.386 344.058 102.962 343.818C102.548 343.568 102.064 343.443 101.509 343.443C100.965 343.443 100.48 343.568 100.056 343.818C99.6314 344.058 99.2994 344.401 99.06 344.847C98.8206 345.282 98.7009 345.783 98.7009 346.349V346.61C98.7009 347.187 98.8315 347.704 99.0927 348.161C99.3647 348.607 99.7402 348.955 100.219 349.205C100.698 349.456 101.248 349.581 101.868 349.581C102.379 349.581 102.842 349.494 103.255 349.32C103.68 349.146 104.05 348.884 104.366 348.536L105.231 349.548C104.839 350.005 104.349 350.354 103.762 350.593C103.185 350.832 102.537 350.952 101.819 350.952ZM116.854 350.952C116.016 350.952 115.265 350.767 114.601 350.397C113.948 350.027 113.431 349.51 113.05 348.846C112.67 348.182 112.479 347.41 112.479 346.528C112.479 345.647 112.67 344.879 113.05 344.226C113.431 343.562 113.948 343.046 114.601 342.676C115.265 342.305 116.016 342.12 116.854 342.12C117.583 342.12 118.242 342.284 118.829 342.61C119.417 342.937 119.885 343.426 120.233 344.079C120.592 344.732 120.772 345.549 120.772 346.528C120.772 347.508 120.598 348.324 120.25 348.977C119.912 349.63 119.45 350.125 118.862 350.462C118.274 350.789 117.605 350.952 116.854 350.952ZM116.985 349.581C117.529 349.581 118.019 349.456 118.454 349.205C118.9 348.955 119.248 348.601 119.499 348.144C119.76 347.676 119.891 347.138 119.891 346.528C119.891 345.908 119.76 345.375 119.499 344.928C119.248 344.471 118.9 344.118 118.454 343.867C118.019 343.617 117.529 343.492 116.985 343.492C116.43 343.492 115.934 343.617 115.499 343.867C115.064 344.118 114.716 344.471 114.454 344.928C114.193 345.375 114.063 345.908 114.063 346.528C114.063 347.138 114.193 347.676 114.454 348.144C114.716 348.601 115.064 348.955 115.499 349.205C115.934 349.456 116.43 349.581 116.985 349.581ZM119.939 350.854V348.52L120.037 346.512L119.874 344.504V338.741H121.441V350.854H119.939ZM128.726 350.952C127.801 350.952 126.984 350.762 126.277 350.381C125.58 350 125.036 349.478 124.645 348.814C124.264 348.15 124.073 347.388 124.073 346.528C124.073 345.668 124.258 344.907 124.628 344.243C125.009 343.579 125.526 343.062 126.179 342.692C126.843 342.311 127.588 342.12 128.416 342.12C129.254 342.12 129.994 342.305 130.636 342.676C131.278 343.046 131.778 343.568 132.138 344.243C132.508 344.907 132.693 345.685 132.693 346.577C132.693 346.642 132.687 346.719 132.676 346.806C132.676 346.893 132.671 346.974 132.66 347.051H125.297V345.924H131.844L131.207 346.316C131.218 345.761 131.104 345.266 130.864 344.83C130.625 344.395 130.293 344.058 129.868 343.818C129.455 343.568 128.971 343.443 128.416 343.443C127.871 343.443 127.387 343.568 126.963 343.818C126.538 344.058 126.206 344.401 125.967 344.847C125.727 345.282 125.608 345.783 125.608 346.349V346.61C125.608 347.187 125.738 347.704 125.999 348.161C126.272 348.607 126.647 348.955 127.126 349.205C127.605 349.456 128.154 349.581 128.775 349.581C129.286 349.581 129.749 349.494 130.162 349.32C130.587 349.146 130.957 348.884 131.272 348.536L132.138 349.548C131.746 350.005 131.256 350.354 130.668 350.593C130.092 350.832 129.444 350.952 128.726 350.952ZM138.306 350.952C137.436 350.952 136.761 350.718 136.282 350.25C135.803 349.782 135.564 349.113 135.564 348.242V340.308H137.131V348.177C137.131 348.645 137.245 349.004 137.474 349.254C137.713 349.505 138.051 349.63 138.486 349.63C138.976 349.63 139.384 349.494 139.71 349.222L140.2 350.348C139.961 350.555 139.672 350.707 139.335 350.805C139.008 350.903 138.665 350.952 138.306 350.952ZM134.095 343.492V342.202H139.612V343.492H134.095ZM147.932 350.854V349.026L147.85 348.683V345.565C147.85 344.901 147.654 344.39 147.263 344.03C146.882 343.66 146.305 343.475 145.532 343.475C145.021 343.475 144.52 343.562 144.03 343.737C143.541 343.9 143.127 344.123 142.79 344.406L142.137 343.231C142.583 342.871 143.116 342.599 143.737 342.414C144.368 342.218 145.026 342.12 145.712 342.12C146.898 342.12 147.812 342.409 148.454 342.986C149.097 343.562 149.418 344.444 149.418 345.63V350.854H147.932ZM145.091 350.952C144.449 350.952 143.883 350.843 143.394 350.626C142.915 350.408 142.545 350.109 142.284 349.728C142.022 349.336 141.892 348.895 141.892 348.406C141.892 347.938 142.001 347.513 142.218 347.132C142.447 346.751 142.811 346.447 143.312 346.218C143.824 345.989 144.509 345.875 145.369 345.875H148.112V347.002H145.434C144.651 347.002 144.123 347.132 143.851 347.393C143.579 347.655 143.443 347.97 143.443 348.34C143.443 348.765 143.611 349.107 143.949 349.369C144.286 349.619 144.754 349.744 145.353 349.744C145.94 349.744 146.452 349.614 146.887 349.352C147.333 349.091 147.654 348.71 147.85 348.21L148.161 349.287C147.954 349.799 147.589 350.207 147.067 350.511C146.544 350.805 145.886 350.952 145.091 350.952ZM152.784 350.854V342.202H154.351V350.854H152.784ZM153.568 340.537C153.263 340.537 153.007 340.439 152.801 340.243C152.605 340.047 152.507 339.808 152.507 339.525C152.507 339.231 152.605 338.986 152.801 338.79C153.007 338.594 153.263 338.496 153.568 338.496C153.873 338.496 154.123 338.594 154.319 338.79C154.526 338.975 154.629 339.209 154.629 339.492C154.629 339.786 154.531 340.036 154.335 340.243C154.139 340.439 153.883 340.537 153.568 340.537ZM157.81 350.854V338.741H159.377V350.854H157.81ZM165.317 350.952C164.599 350.952 163.913 350.854 163.26 350.658C162.618 350.462 162.112 350.223 161.742 349.94L162.395 348.699C162.765 348.95 163.222 349.162 163.767 349.336C164.311 349.51 164.866 349.597 165.432 349.597C166.161 349.597 166.683 349.494 166.999 349.287C167.325 349.08 167.489 348.792 167.489 348.422C167.489 348.15 167.391 347.938 167.195 347.785C166.999 347.633 166.738 347.519 166.411 347.442C166.096 347.366 165.742 347.301 165.35 347.246C164.958 347.181 164.566 347.105 164.175 347.018C163.783 346.92 163.424 346.789 163.097 346.626C162.771 346.452 162.509 346.218 162.314 345.924C162.118 345.619 162.02 345.217 162.02 344.716C162.02 344.194 162.167 343.737 162.461 343.345C162.754 342.953 163.168 342.654 163.701 342.447C164.245 342.229 164.887 342.12 165.628 342.12C166.193 342.12 166.765 342.191 167.342 342.333C167.929 342.463 168.408 342.654 168.778 342.904L168.109 344.145C167.717 343.884 167.309 343.704 166.885 343.606C166.46 343.508 166.036 343.459 165.611 343.459C164.926 343.459 164.414 343.573 164.077 343.802C163.739 344.02 163.571 344.303 163.571 344.651C163.571 344.945 163.669 345.173 163.864 345.336C164.071 345.489 164.332 345.609 164.648 345.696C164.975 345.783 165.334 345.859 165.725 345.924C166.117 345.979 166.509 346.055 166.901 346.153C167.293 346.24 167.646 346.365 167.962 346.528C168.288 346.691 168.55 346.92 168.746 347.214C168.952 347.508 169.056 347.899 169.056 348.389C169.056 348.912 168.903 349.363 168.599 349.744C168.294 350.125 167.864 350.424 167.309 350.642C166.754 350.849 166.09 350.952 165.317 350.952Z" fill="white"/>
<path d="M53.8651 144.635H56.0036L51.498 133.061H49.2288L44.7232 144.635H46.7964L47.8738 141.729H52.7713L53.8651 144.635ZM50.3226 135.183L52.0856 139.917H48.5595L50.3226 135.183ZM63.9673 136.685H61.9757L59.9188 142.366L57.8129 136.685H55.7233L58.9556 144.635H60.8493L63.9673 136.685ZM64.5508 145.076C64.763 146.676 66.2322 147.982 68.3382 147.982C71.3256 147.982 72.4194 146.006 72.4194 143.884V136.685H70.591V137.697C70.2482 137.044 69.4809 136.538 68.2402 136.538C66.0527 136.538 64.5671 138.285 64.5671 140.407C64.5671 142.643 66.118 144.276 68.2402 144.276C69.3993 144.276 70.1992 143.737 70.542 143.117V143.949C70.542 145.566 69.7911 146.333 68.2892 146.333C67.1954 146.333 66.4281 145.598 66.2975 144.619L64.5508 145.076ZM68.5504 142.66C67.3097 142.66 66.4771 141.794 66.4771 140.407C66.4771 139.052 67.3423 138.17 68.5504 138.17C69.7258 138.17 70.591 139.052 70.591 140.407C70.591 141.778 69.7584 142.66 68.5504 142.66ZM86.5552 135.771C86.2941 134.481 85.2329 132.816 82.5067 132.816C80.3518 132.816 78.5724 134.416 78.5724 136.358C78.5724 138.089 79.7478 139.248 81.5109 139.607L83.1434 139.95C84.1392 140.162 84.6942 140.766 84.6942 141.517C84.6942 142.415 83.9759 143.117 82.5883 143.117C80.9232 143.117 80.058 142.007 79.9437 140.799L78.1153 141.321C78.2949 142.986 79.6498 144.88 82.5883 144.88C85.2329 144.88 86.6858 143.166 86.6858 141.37C86.6858 139.738 85.5921 138.448 83.5515 138.04L81.8863 137.697C80.9885 137.501 80.5314 136.946 80.5314 136.211C80.5314 135.33 81.3476 134.546 82.523 134.546C84.0739 134.546 84.6779 135.607 84.7922 136.326L86.5552 135.771ZM89.7679 139.787C89.8332 138.938 90.5189 138.023 91.7106 138.023C93.0166 138.023 93.6369 138.856 93.6695 139.787H89.7679ZM93.8818 141.86C93.6206 142.643 93.0329 143.247 91.8901 143.247C90.7148 143.247 89.7679 142.382 89.7189 141.174H95.5306C95.5469 141.141 95.5796 140.88 95.5796 140.57C95.5796 138.056 94.143 136.44 91.6942 136.44C89.6863 136.44 87.8253 138.105 87.8253 140.619C87.8253 143.313 89.7353 144.88 91.8901 144.88C93.8001 144.88 95.0572 143.753 95.4816 142.366L93.8818 141.86ZM96.6872 142.48C96.7852 143.378 97.6667 144.88 99.9685 144.88C101.993 144.88 102.972 143.541 102.972 142.333C102.972 141.158 102.189 140.244 100.687 139.917L99.4788 139.672C98.989 139.574 98.6788 139.264 98.6788 138.84C98.6788 138.35 99.1523 137.926 99.8216 137.926C100.883 137.926 101.226 138.66 101.291 139.117L102.891 138.66C102.76 137.877 102.042 136.44 99.8216 136.44C98.1728 136.44 96.8994 137.615 96.8994 139.003C96.8994 140.097 97.6341 141.011 99.038 141.321L100.213 141.582C100.85 141.713 101.144 142.039 101.144 142.464C101.144 142.954 100.736 143.378 99.9522 143.378C98.94 143.378 98.4013 142.741 98.336 142.023L96.6872 142.48ZM104.148 142.48C104.246 143.378 105.128 144.88 107.429 144.88C109.454 144.88 110.433 143.541 110.433 142.333C110.433 141.158 109.65 140.244 108.148 139.917L106.94 139.672C106.45 139.574 106.14 139.264 106.14 138.84C106.14 138.35 106.613 137.926 107.283 137.926C108.344 137.926 108.686 138.66 108.752 139.117L110.352 138.66C110.221 137.877 109.503 136.44 107.283 136.44C105.634 136.44 104.36 137.615 104.36 139.003C104.36 140.097 105.095 141.011 106.499 141.321L107.674 141.582C108.311 141.713 108.605 142.039 108.605 142.464C108.605 142.954 108.197 143.378 107.413 143.378C106.401 143.378 105.862 142.741 105.797 142.023L104.148 142.48ZM114.188 144.635V136.685H112.311V144.635H114.188ZM112.017 133.893C112.017 134.579 112.572 135.118 113.242 135.118C113.927 135.118 114.482 134.579 114.482 133.893C114.482 133.208 113.927 132.653 113.242 132.653C112.572 132.653 112.017 133.208 112.017 133.893ZM120.125 143.182C118.966 143.182 117.905 142.301 117.905 140.652C117.905 139.003 118.966 138.154 120.125 138.154C121.3 138.154 122.345 139.003 122.345 140.652C122.345 142.317 121.3 143.182 120.125 143.182ZM120.125 136.44C117.758 136.44 116.011 138.219 116.011 140.652C116.011 143.1 117.758 144.88 120.125 144.88C122.508 144.88 124.255 143.1 124.255 140.652C124.255 138.219 122.508 136.44 120.125 136.44ZM127.979 140.048C127.979 139.003 128.55 138.17 129.628 138.17C130.819 138.17 131.26 138.954 131.26 139.933V144.635H133.154V139.607C133.154 137.86 132.223 136.456 130.281 136.456C129.399 136.456 128.452 136.832 127.93 137.746V136.685H126.085V144.635H127.979V140.048ZM134.757 142.48C134.855 143.378 135.737 144.88 138.038 144.88C140.063 144.88 141.042 143.541 141.042 142.333C141.042 141.158 140.259 140.244 138.757 139.917L137.549 139.672C137.059 139.574 136.749 139.264 136.749 138.84C136.749 138.35 137.222 137.926 137.892 137.926C138.953 137.926 139.296 138.66 139.361 139.117L140.961 138.66C140.83 137.877 140.112 136.44 137.892 136.44C136.243 136.44 134.969 137.615 134.969 139.003C134.969 140.097 135.704 141.011 137.108 141.321L138.283 141.582C138.92 141.713 139.214 142.039 139.214 142.464C139.214 142.954 138.806 143.378 138.022 143.378C137.01 143.378 136.471 142.741 136.406 142.023L134.757 142.48Z" fill="#5E5873"/>
<path d="M45.586 187.509V188.983H49.0749V192.658H50.6048V188.983H54.1123V187.509H50.6048V183.871H49.0749V187.509H45.586ZM55.7985 190.326C55.9664 192.229 57.7015 193.908 60.2762 193.908C62.9628 193.908 64.7165 192.061 64.7165 189.785C64.7165 187.285 62.9814 185.774 60.612 185.774C59.6605 185.774 58.6903 186.072 58.1493 186.669L59.0448 183.199H64.2128V181.52H57.8321L56.2649 187.527C56.8806 187.751 57.4217 187.994 58.056 188.236C58.5784 187.695 59.3993 187.36 60.2575 187.36C61.6568 187.36 62.8695 188.199 62.8695 189.86C62.8695 191.352 61.7128 192.304 60.2762 192.304C58.765 192.304 57.6642 191.296 57.5523 189.804L55.7985 190.326ZM66.4905 192.416C66.4905 193.143 67.0503 193.703 67.7779 193.703C68.5055 193.703 69.0839 193.143 69.0839 192.416C69.0839 191.688 68.5055 191.11 67.7779 191.11C67.0503 191.11 66.4905 191.688 66.4905 192.416ZM73.026 185.867C73.0074 185.68 72.9887 185.494 72.9887 185.326C72.9887 183.945 73.735 182.845 75.3208 182.845C76.8507 182.845 77.597 183.871 77.597 184.971C77.597 185.904 77.0746 186.763 75.9365 187.49L73.9215 188.796C71.8693 190.121 71.0857 191.632 71.0484 193.61H79.5186V191.912H73.3059C73.4738 191.166 74.0895 190.662 74.7798 190.214L77.1679 188.684C78.5485 187.807 79.444 186.539 79.444 184.953C79.444 182.938 77.9514 181.24 75.3581 181.24C72.7088 181.24 71.179 183.087 71.179 185.158C71.179 185.307 71.179 185.475 71.1976 185.643L73.026 185.867ZM82.8451 184.318C82.8451 183.479 83.4794 182.863 84.2817 182.863C85.1026 182.863 85.7183 183.479 85.7183 184.318C85.7183 185.177 85.1026 185.792 84.2817 185.792C83.4794 185.792 82.8451 185.177 82.8451 184.318ZM81.2966 184.318C81.2966 185.979 82.6772 187.266 84.2817 187.266C85.8862 187.266 87.2855 185.979 87.2855 184.318C87.2855 182.677 85.8862 181.389 84.2817 181.389C82.6772 181.389 81.2966 182.677 81.2966 184.318ZM90.2332 190.811C90.2332 189.972 90.8676 189.356 91.6698 189.356C92.4907 189.356 93.1064 189.972 93.1064 190.811C93.1064 191.669 92.4907 192.285 91.6698 192.285C90.8676 192.285 90.2332 191.669 90.2332 190.811ZM88.6847 190.811C88.6847 192.472 90.0653 193.759 91.6698 193.759C93.2743 193.759 94.6736 192.472 94.6736 190.811C94.6736 189.169 93.2743 187.882 91.6698 187.882C90.0653 187.882 88.6847 189.169 88.6847 190.811ZM84.5056 193.61L93.1624 181.52H91.4833L82.7891 193.61H84.5056Z" fill="#28C76F"/>
<path d="M109.932 191.259L105.939 180.382H103.999L108.981 193.61H110.79L115.884 180.382H113.962L109.932 191.259ZM126.095 183.386C125.797 181.949 124.603 180.102 121.618 180.102C119.174 180.102 117.252 181.968 117.252 184.039C117.252 186.016 118.595 187.248 120.48 187.658L122.364 188.069C123.689 188.348 124.342 189.169 124.342 190.121C124.342 191.278 123.446 192.229 121.618 192.229C119.621 192.229 118.577 190.867 118.446 189.393L116.692 189.953C116.935 191.837 118.446 193.889 121.636 193.889C124.454 193.889 126.207 192.024 126.207 189.972C126.207 188.124 124.976 186.744 122.774 186.259L120.797 185.83C119.677 185.587 119.099 184.86 119.099 183.908C119.099 182.677 120.162 181.706 121.655 181.706C123.502 181.706 124.304 183.012 124.454 183.964L126.095 183.386ZM134.953 193.61V180.102H133.199V193.61H134.953ZM137.377 191.203C137.377 192.621 138.552 193.889 140.381 193.889C141.985 193.889 142.881 193.031 143.272 192.397C143.272 193.05 143.328 193.386 143.366 193.61H145.082C145.045 193.386 144.97 192.919 144.97 192.136V187.639C144.97 185.886 143.925 184.356 141.239 184.356C139.298 184.356 137.75 185.55 137.563 187.266L139.242 187.658C139.354 186.613 140.045 185.848 141.276 185.848C142.638 185.848 143.216 186.576 143.216 187.453C143.216 187.77 143.067 188.05 142.526 188.124L140.101 188.479C138.552 188.703 137.377 189.598 137.377 191.203ZM140.623 192.416C139.728 192.416 139.168 191.781 139.168 191.11C139.168 190.307 139.728 189.878 140.474 189.766L143.216 189.356V189.766C143.216 191.725 142.06 192.416 140.623 192.416ZM146.863 191.278C147.012 192.304 148.057 193.889 150.519 193.889C152.74 193.889 153.803 192.378 153.803 191.11C153.803 189.785 152.945 188.796 151.322 188.442L149.866 188.124C149.176 187.975 148.84 187.583 148.84 187.042C148.84 186.427 149.437 185.848 150.333 185.848C151.751 185.848 152.124 186.874 152.199 187.341L153.747 186.763C153.561 185.96 152.796 184.356 150.333 184.356C148.579 184.356 147.143 185.662 147.143 187.192C147.143 188.46 147.982 189.412 149.381 189.71L150.911 190.046C151.658 190.214 152.068 190.643 152.068 191.203C152.068 191.837 151.527 192.397 150.538 192.397C149.269 192.397 148.56 191.651 148.449 190.718L146.863 191.278ZM158.489 181.8H156.884V183.255C156.884 184.039 156.474 184.636 155.504 184.636H155.019V186.221H156.735V191.147C156.735 192.77 157.705 193.703 159.235 193.703C159.832 193.703 160.28 193.591 160.429 193.535V192.042C160.28 192.08 159.963 192.117 159.739 192.117C158.825 192.117 158.489 191.707 158.489 190.886V186.221H160.429V184.636H158.489V181.8ZM174.86 181.52H166.035V183.199H172.845C172.845 183.199 168.404 186.576 167.863 193.61H169.748C170.326 187.21 173.74 184.169 174.86 183.274V181.52ZM182.162 189.095C182.162 187.248 183.207 185.942 184.811 185.942C186.416 185.942 187.386 187.21 187.386 189.057C187.386 190.904 186.397 192.304 184.793 192.304C183.113 192.304 182.162 190.942 182.162 189.095ZM187.404 192.397C187.404 192.938 187.46 193.404 187.498 193.61H189.196C189.177 193.46 189.102 192.807 189.102 191.949V180.102H187.367V185.904C187.069 185.177 186.21 184.393 184.625 184.393C182.087 184.393 180.371 186.557 180.371 189.095C180.371 191.763 181.994 193.852 184.625 193.852C186.024 193.852 186.975 193.106 187.404 192.248V192.397ZM191.526 191.203C191.526 192.621 192.701 193.889 194.529 193.889C196.134 193.889 197.029 193.031 197.421 192.397C197.421 193.05 197.477 193.386 197.515 193.61H199.231C199.194 193.386 199.119 192.919 199.119 192.136V187.639C199.119 185.886 198.074 184.356 195.388 184.356C193.447 184.356 191.899 185.55 191.712 187.266L193.391 187.658C193.503 186.613 194.194 185.848 195.425 185.848C196.787 185.848 197.365 186.576 197.365 187.453C197.365 187.77 197.216 188.05 196.675 188.124L194.25 188.479C192.701 188.703 191.526 189.598 191.526 191.203ZM194.772 192.416C193.876 192.416 193.317 191.781 193.317 191.11C193.317 190.307 193.876 189.878 194.623 189.766L197.365 189.356V189.766C197.365 191.725 196.209 192.416 194.772 192.416ZM203.908 197.36L209.747 184.636H207.863L205.176 190.83L202.378 184.636H200.363L204.225 192.621L201.986 197.36H203.908ZM210.413 191.278C210.562 192.304 211.607 193.889 214.07 193.889C216.29 193.889 217.353 192.378 217.353 191.11C217.353 189.785 216.495 188.796 214.872 188.442L213.417 188.124C212.726 187.975 212.391 187.583 212.391 187.042C212.391 186.427 212.988 185.848 213.883 185.848C215.301 185.848 215.674 186.874 215.749 187.341L217.297 186.763C217.111 185.96 216.346 184.356 213.883 184.356C212.129 184.356 210.693 185.662 210.693 187.192C210.693 188.46 211.532 189.412 212.932 189.71L214.461 190.046C215.208 190.214 215.618 190.643 215.618 191.203C215.618 191.837 215.077 192.397 214.088 192.397C212.82 192.397 212.111 191.651 211.999 190.718L210.413 191.278Z" fill="#6E6B7B"/>
<path d="M561.964 105.155V103.653H556.495V93.581H554.896V105.155H561.964ZM563.186 103.049C563.186 104.29 564.215 105.4 565.814 105.4C567.218 105.4 568.002 104.649 568.345 104.094C568.345 104.666 568.394 104.959 568.426 105.155H569.928C569.896 104.959 569.83 104.551 569.83 103.866V99.9313C569.83 98.3968 568.916 97.0582 566.565 97.0582C564.868 97.0582 563.513 98.103 563.349 99.6048L564.819 99.9477C564.917 99.0335 565.521 98.3641 566.598 98.3641C567.79 98.3641 568.296 99.0008 568.296 99.7681C568.296 100.046 568.165 100.29 567.692 100.356L565.57 100.666C564.215 100.862 563.186 101.645 563.186 103.049ZM566.027 104.11C565.243 104.11 564.753 103.555 564.753 102.968C564.753 102.266 565.243 101.89 565.896 101.792L568.296 101.433V101.792C568.296 103.506 567.284 104.11 566.027 104.11ZM571.486 103.115C571.617 104.013 572.531 105.4 574.686 105.4C576.629 105.4 577.559 104.078 577.559 102.968C577.559 101.809 576.808 100.943 575.388 100.633L574.115 100.356C573.511 100.225 573.217 99.8824 573.217 99.4089C573.217 98.8702 573.739 98.3641 574.523 98.3641C575.763 98.3641 576.09 99.262 576.155 99.6701L577.51 99.1641C577.347 98.4621 576.678 97.0582 574.523 97.0582C572.988 97.0582 571.731 98.2009 571.731 99.5395C571.731 100.65 572.466 101.482 573.69 101.743L575.029 102.037C575.682 102.184 576.041 102.56 576.041 103.049C576.041 103.604 575.567 104.094 574.702 104.094C573.592 104.094 572.972 103.441 572.874 102.625L571.486 103.115ZM581.659 94.8217H580.255V96.095C580.255 96.7806 579.896 97.303 579.047 97.303H578.623V98.6906H580.125V103C580.125 104.421 580.973 105.237 582.312 105.237C582.834 105.237 583.226 105.139 583.357 105.09V103.784C583.226 103.817 582.949 103.849 582.753 103.849C581.953 103.849 581.659 103.49 581.659 102.772V98.6906H583.357V97.303H581.659V94.8217ZM595.984 94.5768H588.262V96.046H594.22C594.22 96.046 590.335 99.0008 589.862 105.155H591.511C592.017 99.5559 595.004 96.8949 595.984 96.1113V94.5768ZM603.222 103.735V95.0012H605.622C607.76 95.0012 609.523 96.4705 609.523 99.3926C609.523 102.298 607.728 103.735 605.589 103.735H603.222ZM605.638 105.155C608.577 105.155 611.172 103.18 611.172 99.3926C611.172 95.5889 608.609 93.581 605.671 93.581H601.622V105.155H605.638ZM612.719 103.049C612.719 104.29 613.747 105.4 615.347 105.4C616.751 105.4 617.534 104.649 617.877 104.094C617.877 104.666 617.926 104.959 617.959 105.155H619.461C619.428 104.959 619.363 104.551 619.363 103.866V99.9313C619.363 98.3968 618.449 97.0582 616.098 97.0582C614.4 97.0582 613.045 98.103 612.882 99.6048L614.351 99.9477C614.449 99.0335 615.053 98.3641 616.13 98.3641C617.322 98.3641 617.828 99.0008 617.828 99.7681C617.828 100.046 617.698 100.29 617.224 100.356L615.102 100.666C613.747 100.862 612.719 101.645 612.719 103.049ZM615.559 104.11C614.775 104.11 614.286 103.555 614.286 102.968C614.286 102.266 614.775 101.89 615.428 101.792L617.828 101.433V101.792C617.828 103.506 616.816 104.11 615.559 104.11ZM623.553 108.437L628.663 97.303H627.014L624.663 102.723L622.214 97.303H620.451L623.83 104.29L621.871 108.437H623.553ZM629.245 103.115C629.375 104.013 630.29 105.4 632.445 105.4C634.387 105.4 635.318 104.078 635.318 102.968C635.318 101.809 634.567 100.943 633.147 100.633L631.873 100.356C631.269 100.225 630.975 99.8824 630.975 99.4089C630.975 98.8702 631.498 98.3641 632.281 98.3641C633.522 98.3641 633.848 99.262 633.914 99.6701L635.269 99.1641C635.105 98.4621 634.436 97.0582 632.281 97.0582C630.747 97.0582 629.49 98.2009 629.49 99.5395C629.49 100.65 630.224 101.482 631.449 101.743L632.787 102.037C633.44 102.184 633.8 102.56 633.8 103.049C633.8 103.604 633.326 104.094 632.461 104.094C631.351 104.094 630.73 103.441 630.632 102.625L629.245 103.115Z" fill="#6E6B7B"/>
<path d="M49.075 103.821C49.047 103.513 48.991 103.178 48.991 102.898C48.991 101.023 50.0265 99.5394 52.1534 99.5394C54.1963 99.5394 55.2038 100.883 55.2038 102.366C55.2038 103.681 54.5041 104.773 52.881 105.78L49.8866 107.655C46.7242 109.614 45.6328 112.049 45.5768 115.155H58.702V112.189H49.7186C49.9705 111.293 50.6981 110.65 51.5657 110.118L55.0918 107.935C57.2747 106.592 58.59 104.661 58.59 102.31C58.59 99.2036 56.2113 96.601 52.2093 96.601C48.0955 96.601 45.7447 99.4275 45.7447 102.562C45.7447 102.926 45.8007 103.345 45.8287 103.597L49.075 103.821ZM61.5595 113.056C61.5595 114.316 62.567 115.323 63.8263 115.323C65.0857 115.323 66.1211 114.316 66.1211 113.056C66.1211 111.797 65.0857 110.762 63.8263 110.762C62.567 110.762 61.5595 111.797 61.5595 113.056ZM80.803 97.0207H67.2581V99.9592H76.997C76.997 99.9592 70.6723 105.025 69.8887 115.155H73.3589C74.1704 105.808 79.2918 101.219 80.803 99.9592V97.0207ZM95.8071 101.526H91.4973L86.2641 107.04V94.8938H83.0458V115.155H86.2641V111.349L87.9432 109.586L91.9451 115.155H95.919L90.21 107.291L95.8071 101.526Z" fill="#050238"/>
<g filter="url(#filter0_d_1_813)">
<rect x="243" y="32" width="164" height="180" rx="24" fill="white"/>
<path d="M284.492 135H284.992V134.5H284.492V135ZM283.492 190H282.992V190.5H283.492V190ZM307.193 135H307.693V134.5H307.193V135ZM306.193 190H305.693V190.5H306.193V190ZM330.455 190V190.5H330.955V190H330.455ZM329.455 135V134.5H328.955V135H329.455ZM354.44 135H354.94V134.5H354.44V135ZM353.44 190H352.94V190.5H353.44V190ZM377.683 135V134.5H377.183V135H377.683ZM378.683 190V190.5H379.183V190H378.683ZM284.492 134.5H283.992V135.5H284.492V134.5ZM282.992 135V136.964H283.992V135H282.992ZM282.992 140.893V144.821H283.992V140.893H282.992ZM282.992 148.75V152.679H283.992V148.75H282.992ZM282.992 156.607V160.536H283.992V156.607H282.992ZM282.992 164.464V168.393H283.992V164.464H282.992ZM282.992 172.321V176.25H283.992V172.321H282.992ZM282.992 180.179V184.107H283.992V180.179H282.992ZM282.992 188.036V190H283.992V188.036H282.992ZM283.492 190.5H283.992V189.5H283.492V190.5ZM284.992 190V188.036H283.992V190H284.992ZM284.992 184.107V180.179H283.992V184.107H284.992ZM284.992 176.25V172.321H283.992V176.25H284.992ZM284.992 168.393V164.464H283.992V168.393H284.992ZM284.992 160.536V156.607H283.992V160.536H284.992ZM284.992 152.679V148.75H283.992V152.679H284.992ZM284.992 144.821V140.893H283.992V144.821H284.992ZM284.992 136.964V135H283.992V136.964H284.992ZM307.193 134.5H306.693V135.5H307.193V134.5ZM305.693 135V136.964H306.693V135H305.693ZM305.693 140.893V144.821H306.693V140.893H305.693ZM305.693 148.75V152.679H306.693V148.75H305.693ZM305.693 156.607V160.536H306.693V156.607H305.693ZM305.693 164.464V168.393H306.693V164.464H305.693ZM305.693 172.321V176.25H306.693V172.321H305.693ZM305.693 180.179V184.107H306.693V180.179H305.693ZM305.693 188.036V190H306.693V188.036H305.693ZM306.193 190.5H306.693V189.5H306.193V190.5ZM307.693 190V188.036H306.693V190H307.693ZM307.693 184.107V180.179H306.693V184.107H307.693ZM307.693 176.25V172.321H306.693V176.25H307.693ZM307.693 168.393V164.464H306.693V168.393H307.693ZM307.693 160.536V156.607H306.693V160.536H307.693ZM307.693 152.679V148.75H306.693V152.679H307.693ZM307.693 144.821V140.893H306.693V144.821H307.693ZM307.693 136.964V135H306.693V136.964H307.693ZM330.455 189.5H329.955V190.5H330.455V189.5ZM329.955 190V188.036H328.955V190H329.955ZM329.955 184.107V180.179H328.955V184.107H329.955ZM329.955 176.25V172.321H328.955V176.25H329.955ZM329.955 168.393V164.464H328.955V168.393H329.955ZM329.955 160.536V156.607H328.955V160.536H329.955ZM329.955 152.679V148.75H328.955V152.679H329.955ZM329.955 144.821V140.893H328.955V144.821H329.955ZM329.955 136.964V135H328.955V136.964H329.955ZM329.455 135.5H329.955V134.5H329.455V135.5ZM329.955 135V136.964H330.955V135H329.955ZM329.955 140.893V144.821H330.955V140.893H329.955ZM329.955 148.75V152.679H330.955V148.75H329.955ZM329.955 156.607V160.536H330.955V156.607H329.955ZM329.955 164.464V168.393H330.955V164.464H329.955ZM329.955 172.321V176.25H330.955V172.321H329.955ZM329.955 180.179V184.107H330.955V180.179H329.955ZM329.955 188.036V190H330.955V188.036H329.955ZM354.44 134.5H353.94V135.5H354.44V134.5ZM352.94 135V136.964H353.94V135H352.94ZM352.94 140.893V144.821H353.94V140.893H352.94ZM352.94 148.75V152.679H353.94V148.75H352.94ZM352.94 156.607V160.536H353.94V156.607H352.94ZM352.94 164.464V168.393H353.94V164.464H352.94ZM352.94 172.321V176.25H353.94V172.321H352.94ZM352.94 180.179V184.107H353.94V180.179H352.94ZM352.94 188.036V190H353.94V188.036H352.94ZM353.44 190.5H353.94V189.5H353.44V190.5ZM354.94 190V188.036H353.94V190H354.94ZM354.94 184.107V180.179H353.94V184.107H354.94ZM354.94 176.25V172.321H353.94V176.25H354.94ZM354.94 168.393V164.464H353.94V168.393H354.94ZM354.94 160.536V156.607H353.94V160.536H354.94ZM354.94 152.679V148.75H353.94V152.679H354.94ZM354.94 144.821V140.893H353.94V144.821H354.94ZM354.94 136.964V135H353.94V136.964H354.94ZM263.531 189.5H263.031V190.5H263.531V189.5ZM263.031 190V187.943H262.031V190H263.031ZM263.031 183.829V179.715H262.031V183.829H263.031ZM263.031 175.601V171.487H262.031V175.601H263.031ZM263.031 167.373V163.259H262.031V167.373H263.031ZM263.031 159.146V155.032H262.031V159.146H263.031ZM263.031 150.918V146.804H262.031V150.918H263.031ZM263.031 142.69V138.576H262.031V142.69H263.031ZM262.531 137.019H263.031V136.019H262.531V137.019ZM263.031 136.519V138.576H264.031V136.519H263.031ZM263.031 142.69V146.804H264.031V142.69H263.031ZM263.031 150.918V155.032H264.031V150.918H263.031ZM263.031 159.146V163.259H264.031V159.146H263.031ZM263.031 167.373V171.487H264.031V167.373H263.031ZM263.031 175.601V179.715H264.031V175.601H263.031ZM263.031 183.829V187.943H264.031V183.829H263.031ZM378.183 190V188.036H377.183V190H378.183ZM378.183 184.107V180.179H377.183V184.107H378.183ZM378.183 176.25V172.321H377.183V176.25H378.183ZM378.183 168.393V164.464H377.183V168.393H378.183ZM378.183 160.536V156.607H377.183V160.536H378.183ZM378.183 152.679V148.75H377.183V152.679H378.183ZM378.183 144.821V140.893H377.183V144.821H378.183ZM378.183 136.964V135H377.183V136.964H378.183ZM377.683 135.5H378.183V134.5H377.683V135.5ZM378.183 135V136.964H379.183V135H378.183ZM378.183 140.893V144.821H379.183V140.893H378.183ZM378.183 148.75V152.679H379.183V148.75H378.183ZM378.183 156.607V160.536H379.183V156.607H378.183ZM378.183 164.464V168.393H379.183V164.464H378.183ZM378.183 172.321V176.25H379.183V172.321H378.183ZM378.183 180.179V184.107H379.183V180.179H378.183ZM378.183 188.036V190H379.183V188.036H378.183ZM378.683 189.5H378.183V190.5H378.683V189.5Z" fill="#EBEBEB"/>
<path d="M262.524 190L283.606 167.6L304.78 182.378L327.231 156.292L350.405 171.426L378.69 135" stroke="#00CFE8" stroke-width="2.5" stroke-linecap="round"/>
<g filter="url(#filter1_d_1_813)">
<circle cx="378.824" cy="135" r="8" fill="white"/>
<circle cx="378.824" cy="135" r="5.5" stroke="#00CFE8" stroke-width="5"/>
</g>
<path d="M273.661 85.856C272.989 85.424 271.789 85.088 270.349 85.088C265.525 85.088 261.997 88.496 261.997 94.136C261.997 98.12 264.253 101.36 268.213 101.36C271.477 101.36 274.117 99.2 274.117 95.96C274.117 92.768 271.933 90.704 268.837 90.704C267.181 90.704 265.693 91.304 264.877 92.552C265.141 89.528 267.253 87.584 270.181 87.584C271.453 87.584 272.269 87.896 272.845 88.208L273.661 85.856ZM265.189 96.008C265.189 94.184 266.581 93.104 268.213 93.104C269.845 93.104 271.237 94.184 271.237 96.008C271.237 97.808 269.845 98.912 268.213 98.912C266.629 98.912 265.189 97.784 265.189 96.008ZM276.234 99.248C276.234 100.352 277.002 101.072 278.058 101.072C278.37 101.072 278.538 101 278.634 100.952C278.61 102.2 277.602 103.304 276.498 103.544V104.96C278.13 104.744 280.41 103.328 280.41 99.968C280.41 98.432 279.498 97.424 278.226 97.424C277.098 97.424 276.234 98.24 276.234 99.248ZM285.755 91.28C285.731 91.016 285.683 90.728 285.683 90.488C285.683 88.88 286.571 87.608 288.395 87.608C290.147 87.608 291.011 88.76 291.011 90.032C291.011 91.16 290.411 92.096 289.019 92.96L286.451 94.568C283.739 96.248 282.803 98.336 282.755 101H294.011V98.456H286.307C286.523 97.688 287.147 97.136 287.891 96.68L290.915 94.808C292.787 93.656 293.915 92 293.915 89.984C293.915 87.32 291.875 85.088 288.443 85.088C284.915 85.088 282.899 87.512 282.899 90.2C282.899 90.512 282.947 90.872 282.971 91.088L285.755 91.28ZM295.341 97.592H302.829V101H305.661V97.592H308.277V95.048H305.661V85.448H301.965L295.341 94.472V97.592ZM302.829 95.048H297.933L302.829 88.352V95.048ZM321.379 89.312H317.683L313.195 94.04V83.624H310.435V101H313.195V97.736L314.635 96.224L318.067 101H321.475L316.579 94.256L321.379 89.312Z" fill="#050238"/>
<path d="M263.87 59.638V56.558H265.62C266.684 56.558 267.328 57.16 267.328 58.112C267.328 59.05 266.684 59.638 265.62 59.638H263.87ZM265.872 61.122C267.776 61.122 269.036 59.848 269.036 58.098C269.036 56.362 267.776 55.074 265.872 55.074H262.19V65H263.87V61.122H265.872ZM274.284 58.14C274.214 58.126 274.046 58.098 273.85 58.098C272.954 58.098 272.198 58.532 271.876 59.274V58.182H270.294V65H271.918V61.752C271.918 60.478 272.492 59.75 273.752 59.75C273.92 59.75 274.102 59.764 274.284 59.792V58.14ZM278.567 63.754C277.573 63.754 276.663 62.998 276.663 61.584C276.663 60.17 277.573 59.442 278.567 59.442C279.575 59.442 280.471 60.17 280.471 61.584C280.471 63.012 279.575 63.754 278.567 63.754ZM278.567 57.972C276.537 57.972 275.039 59.498 275.039 61.584C275.039 63.684 276.537 65.21 278.567 65.21C280.611 65.21 282.109 63.684 282.109 61.584C282.109 59.498 280.611 57.972 278.567 57.972ZM286.437 54.794C285.037 54.794 284.057 55.718 284.057 57.244V58.182H282.867V59.596H284.057V65H285.695V59.596H288.635V65H290.231V58.182H285.695V57.286C285.695 56.446 286.283 56.25 286.703 56.25C287.011 56.25 287.193 56.292 287.291 56.32V54.934C287.179 54.878 286.843 54.794 286.437 54.794ZM288.383 55.774C288.383 56.348 288.845 56.824 289.433 56.824C290.021 56.824 290.497 56.348 290.497 55.774C290.497 55.186 290.021 54.71 289.433 54.71C288.845 54.71 288.383 55.186 288.383 55.774ZM294.405 56.096H292.935V57.118C292.935 57.72 292.613 58.182 291.885 58.182H291.535V59.624H292.795V63.054C292.795 64.328 293.579 65.084 294.839 65.084C295.427 65.084 295.735 64.972 295.833 64.93V63.586C295.763 63.6 295.497 63.642 295.273 63.642C294.671 63.642 294.405 63.39 294.405 62.788V59.624H295.819V58.182H294.405V56.096Z" fill="#5E5873"/>
</g>
<circle opacity="0.57" cx="296" cy="568" r="20" fill="#4975E9"/>
<defs>
<filter id="filter0_d_1_813" x="179" y="0" width="292" height="308" filterUnits="userSpaceOnUse" color-interpolation-filters="sRGB">
<feFlood flood-opacity="0" result="BackgroundImageFix"/>
<feColorMatrix in="SourceAlpha" type="matrix" values="0 0 0 0 0 0 0 0 0 0 0 0 0 0 0 0 0 0 127 0" result="hardAlpha"/>
<feOffset dy="32"/>
<feGaussianBlur stdDeviation="32"/>
<feComposite in2="hardAlpha" operator="out"/>
<feColorMatrix type="matrix" values="0 0 0 0 0.127517 0 0 0 0 0.221929 0 0 0 0 0.470833 0 0 0 0.12 0"/>
<feBlend mode="normal" in2="BackgroundImageFix" result="effect1_dropShadow_1_813"/>
<feBlend mode="normal" in="SourceGraphic" in2="effect1_dropShadow_1_813" result="shape"/>
</filter>
<filter id="filter1_d_1_813" x="362.824" y="123" width="28" height="28" filterUnits="userSpaceOnUse" color-interpolation-filters="sRGB">
<feFlood flood-opacity="0" result="BackgroundImageFix"/>
<feColorMatrix in="SourceAlpha" type="matrix" values="0 0 0 0 0 0 0 0 0 0 0 0 0 0 0 0 0 0 127 0" result="hardAlpha"/>
<feOffset dx="-2" dy="2"/>
<feGaussianBlur stdDeviation="3"/>
<feColorMatrix type="matrix" values="0 0 0 0 0 0 0 0 0 0.811765 0 0 0 0 0.909804 0 0 0 0.6819 0"/>
<feBlend mode="normal" in2="BackgroundImageFix" result="effect1_dropShadow_1_813"/>
<feBlend mode="normal" in="SourceGraphic" in2="effect1_dropShadow_1_813" result="shape"/>
</filter>
<clipPath id="clip0_1_813">
<rect width="259.085" height="40.812" fill="white" transform="translate(373.355 488.279)"/>
</clipPath>
<clipPath id="clip1_1_813">
<rect width="257.699" height="6.99635" fill="white" transform="translate(374.521 522.095)"/>
</clipPath>
<clipPath id="clip2_1_813">
<rect width="259.085" height="40.812" fill="white" transform="translate(50.3691 488.279)"/>
</clipPath>
<clipPath id="clip3_1_813">
<rect width="257.699" height="6.99635" fill="white" transform="translate(51.5352 522.095)"/>
</clipPath>
<clipPath id="clip4_1_813">
<rect width="259.085" height="40.812" fill="white" transform="translate(373.355 424.146)"/>
</clipPath>
<clipPath id="clip5_1_813">
<rect width="257.699" height="6.99635" fill="white" transform="translate(374.521 457.962)"/>
</clipPath>
<clipPath id="clip6_1_813">
<rect width="259.085" height="40.812" fill="white" transform="translate(50.3691 424.146)"/>
</clipPath>
<clipPath id="clip7_1_813">
<rect width="257.699" height="6.99635" fill="white" transform="translate(51.5352 457.962)"/>
</clipPath>
</defs>
</svg>
